<svg id="visual" viewBox="0 0 1400 400" width="1400" height="400" xmlns="http://www.w3.org/2000/svg" xmlns:xlink="http://www.w3.org/1999/xlink" version="1.1"><rect x="0" y="0" width="1400" height="400" fill="#000000"></rect><path d="M739 400L754.2 388.8C769.3 377.7 799.7 355.3 809 333.2C818.3 311 806.7 289 787.2 266.8C767.7 244.7 740.3 222.3 727.7 200C715 177.7 717 155.3 732.8 133.2C748.7 111 778.3 89 789 66.8C799.7 44.7 791.3 22.3 787.2 11.2L783 0L1400 0L1400 11.2C1400 22.3 1400 44.7 1400 66.8C1400 89 1400 111 1400 133.2C1400 155.3 1400 177.7 1400 200C1400 222.3 1400 244.7 1400 266.8C1400 289 1400 311 1400 333.2C1400 355.3 1400 377.7 1400 388.8L1400 400Z" fill="#ffffff" stroke-linecap="round" stroke-linejoin="miter"></path></svg>